<?xml version="1.0" encoding="UTF-8" standalone="no"?>
<!-- Generator: Adobe Illustrator 28.0.0, SVG Export Plug-In . SVG Version: 6.00 Build 0)  -->

<svg
   version="1.1"
   id="Layer_1"
   x="0px"
   y="0px"
   viewBox="0 0 510 310"
   xml:space="preserve"
   sodipodi:docname="b.svg"
   width="510"
   height="310"
   inkscape:version="1.4.2 (f4327f4, 2025-05-13)"
   xmlns:inkscape="http://www.inkscape.org/namespaces/inkscape"
   xmlns:sodipodi="http://sodipodi.sourceforge.net/DTD/sodipodi-0.dtd"
   xmlns="http://www.w3.org/2000/svg"
   xmlns:svg="http://www.w3.org/2000/svg"><defs
   id="defs6" /><sodipodi:namedview
   id="namedview6"
   pagecolor="#ffffff"
   bordercolor="#000000"
   borderopacity="0.25"
   inkscape:showpageshadow="2"
   inkscape:pageopacity="0.0"
   inkscape:pagecheckerboard="0"
   inkscape:deskcolor="#d1d1d1"
   inkscape:zoom="1.63"
   inkscape:cx="250"
   inkscape:cy="200.92025"
   inkscape:window-width="1920"
   inkscape:window-height="1017"
   inkscape:window-x="1913"
   inkscape:window-y="1072"
   inkscape:window-maximized="1"
   inkscape:current-layer="Layer_1" />
<style
   type="text/css"
   id="style1">
	.st0{fill:#EC00FF;}
	.st1{fill:#2CFF00;}
	.st2{fill:none;stroke:#000000;stroke-width:20.2611;stroke-miterlimit:10;}
	.st3{fill:#00FFCE;}
	.st4{fill:none;stroke:#EC00FF;stroke-width:11.1514;stroke-linejoin:round;stroke-miterlimit:10;}
	.st5{fill:#F1F2F2;}
	.st6{fill:#BCBEC0;}
	.st7{fill:#FFFFFF;}
	.st8{fill:none;stroke:#000000;stroke-width:11.3855;stroke-linejoin:bevel;stroke-miterlimit:10;}
	.st9{fill:none;stroke:#000000;stroke-width:11.3855;stroke-miterlimit:10;}
	.st10{fill:none;stroke:#F1F2F2;stroke-width:11.3855;stroke-linejoin:bevel;stroke-miterlimit:10;}
	.st11{fill:none;stroke:#000000;stroke-width:12;stroke-miterlimit:10;}
	.st12{fill:none;stroke:#000000;stroke-width:12;stroke-linejoin:bevel;stroke-miterlimit:10;}
	.st13{fill:none;stroke:#000000;stroke-width:12.8315;stroke-miterlimit:10;}
	.st14{fill:none;stroke:#F1F2F2;stroke-width:12.8315;stroke-linejoin:bevel;stroke-miterlimit:10;}
	.st15{fill:none;stroke:#000000;stroke-width:17;stroke-miterlimit:10;}
	.st16{fill:none;stroke:#EC00FF;stroke-width:10;stroke-linejoin:bevel;stroke-miterlimit:10;}
	.st17{fill:none;stroke:#EC00FF;stroke-width:6;stroke-miterlimit:10;}
	.st18{fill:none;stroke:#EC00FF;stroke-width:6;stroke-linejoin:bevel;stroke-miterlimit:10;}
	.st19{fill:none;stroke:#FFFFFF;stroke-width:8;stroke-linejoin:bevel;stroke-miterlimit:10;}
	.st20{fill:none;stroke:#EC00FF;stroke-width:7.6915;stroke-miterlimit:10;}
	.st21{fill:none;stroke:#EC00FF;stroke-width:8.1417;stroke-miterlimit:10;}
	.st22{fill:none;stroke:#EC00FF;stroke-width:8;stroke-miterlimit:10;}
	.st23{fill:none;stroke:#EC00FF;stroke-width:11;stroke-miterlimit:10;}
	.st24{fill:none;stroke:#EC00FF;stroke-width:11;stroke-linejoin:bevel;stroke-miterlimit:10;}
	.st25{fill:none;stroke:#FFFFFF;stroke-width:10;stroke-linejoin:bevel;stroke-miterlimit:10;}
	.st26{fill:none;stroke:#EC00FF;stroke-width:10;stroke-miterlimit:10;}
	.st27{fill:none;stroke:#000000;stroke-width:5;stroke-linejoin:bevel;stroke-miterlimit:10;}
	.st28{fill:none;stroke:#FFFFFF;stroke-width:12.4974;stroke-linejoin:bevel;stroke-miterlimit:10;}
	.st29{fill:none;stroke:#000000;stroke-width:12.4974;stroke-linejoin:bevel;stroke-miterlimit:10;}
	.st30{fill:none;stroke:#EC00FF;stroke-width:13.3779;stroke-linejoin:bevel;stroke-miterlimit:10;}
	.st31{fill:none;stroke:#EC00FF;stroke-width:13.3779;stroke-miterlimit:10;}
	.st32{fill:none;stroke:#FFFFFF;stroke-width:12.3065;stroke-linejoin:bevel;stroke-miterlimit:10;}
	.st33{fill:none;stroke:#EC00FF;stroke-width:13;stroke-miterlimit:10;}
	.st34{fill:none;stroke:#000000;stroke-width:13.3779;stroke-linejoin:bevel;stroke-miterlimit:10;}
	.st35{fill:none;stroke:#000000;stroke-width:13.3779;stroke-miterlimit:10;}
	.st36{fill:none;stroke:#000000;stroke-width:13;stroke-miterlimit:10;}
	.st37{fill:none;stroke:#000000;stroke-width:14.5;stroke-linejoin:bevel;stroke-miterlimit:10;}
	.st38{fill:none;stroke:#EC00FF;stroke-width:17;stroke-linejoin:bevel;stroke-miterlimit:10;}
	.st39{fill:none;stroke:#EC00FF;stroke-width:17;stroke-miterlimit:10;}
	.st40{fill:none;stroke:#FFFFFF;stroke-width:17;stroke-linejoin:bevel;stroke-miterlimit:10;}
	.st41{fill:#606060;}
	.st42{fill:#00FFFF;}
	.st43{fill:none;stroke:#000000;stroke-width:20.2611;stroke-linejoin:bevel;stroke-miterlimit:10;}
	.st44{fill:none;}
	.st45{fill:none;stroke:#606060;stroke-width:12.8315;stroke-linejoin:bevel;stroke-miterlimit:10;}
	.st46{fill:none;stroke:#000000;stroke-width:19.6398;stroke-miterlimit:10;}
	.st47{fill:none;stroke:#000000;stroke-width:19.6398;stroke-linejoin:bevel;stroke-miterlimit:10;}
	.st48{fill:none;stroke:#000000;stroke-width:21.0007;stroke-miterlimit:10;}
	.st49{fill:none;stroke:#F1F2F2;stroke-width:21.0007;stroke-linejoin:bevel;stroke-miterlimit:10;}
	.st50{fill:none;stroke:#000000;stroke-width:15.7338;stroke-miterlimit:10;}
	.st51{fill:none;stroke:#000000;stroke-width:16.2021;stroke-miterlimit:10;}
	.st52{fill:none;stroke:#000000;stroke-width:13.8148;stroke-linejoin:bevel;stroke-miterlimit:10;}
	.st53{fill:none;stroke:#000000;stroke-width:13.8;stroke-miterlimit:10;}
	.st54{fill:none;stroke:#F1F2F2;stroke-width:13.8;stroke-linejoin:bevel;stroke-miterlimit:10;}
</style>
<g
   id="g6"
   transform="translate(4,-96)">
	<path
   d="m 287.9,397.6 h 36 c 1.5,0 2.7,-1.2 2.7,-2.7 V 105.1 c 0,-1.5 -1.2,-2.7 -2.7,-2.7 h -36 c -1.5,0 -2.7,1.2 -2.7,2.7 V 395 c 0.1,1.4 1.3,2.6 2.7,2.6 z"
   id="path1" />
	<path
   d="m 201.2,332.9 h 36 c 1.5,0 2.7,-1.2 2.7,-2.7 v -61.4 c 0,-1.5 -1.2,-2.7 -2.7,-2.7 h -36 c -1.5,0 -2.7,1.2 -2.7,2.7 v 61.4 c 0.1,1.5 1.3,2.7 2.7,2.7 z"
   id="path2" />
	<path
   d="m 458.7,205.5 v 89 c 0,1.5 1.2,2.7 2.7,2.7 h 36 c 1.5,0 2.7,-1.2 2.7,-2.7 v -89 c 0,-1.5 -1.2,-2.7 -2.7,-2.7 h -36 c -1.5,0 -2.7,1.2 -2.7,2.7 z"
   id="path3" />
	<path
   d="m 374.6,373 h 36 c 1.5,0 2.7,-1.2 2.7,-2.7 V 129.7 c 0,-1.5 -1.2,-2.7 -2.7,-2.7 h -36 c -1.5,0 -2.7,1.2 -2.7,2.7 v 240.7 c 0.1,1.4 1.3,2.6 2.7,2.6 z"
   id="path4" />
	<path
   d="m 0,119 v 36 c 0,1.5 1.2,2.7 2.7,2.7 h 194.8 c -1.8,2.4 -3.7,4.7 -5.6,7 -10.7,12.8 -22.5,24.8 -35.2,35.6 -1.1,1 -1.3,2.6 -0.3,3.7 l 23.1,27.6 c 0.9,1.1 2.6,1.3 3.8,0.3 14.6,-12.4 28.2,-26.1 40.4,-40.8 11,-13.2 21.1,-27.4 29.9,-42.2 0.5,-0.8 0.5,-1.9 0,-2.7 l -16.2,-28.5 c -0.5,-0.8 -1.4,-1.3 -2.3,-1.3 H 2.7 C 1.2,116.4 0,117.6 0,119 Z"
   id="path5" />
	<path
   d="m 93.5,222.7 c 0,40.3 -20,77.7 -53.6,100.1 l -14.1,9.4 c -1.2,0.8 -1.6,2.5 -0.7,3.7 l 20,29.9 c 0.8,1.2 2.5,1.6 3.7,0.7 l 14.1,-9.4 c 45.1,-30 72,-80.3 72,-134.5 v -27.2 c 0,-1.5 -1.2,-2.7 -2.7,-2.7 h -36 c -1.5,0 -2.7,1.2 -2.7,2.7 z"
   id="path6" />
</g>
</svg>
