<?xml version="1.0" encoding="UTF-8" standalone="no"?>
<!-- Generator: Adobe Illustrator 28.0.0, SVG Export Plug-In . SVG Version: 6.00 Build 0)  -->

<svg
   version="1.1"
   id="Layer_1"
   x="0px"
   y="0px"
   viewBox="0 0 510 290"
   xml:space="preserve"
   sodipodi:docname="bx.svg"
   width="510"
   height="290"
   inkscape:version="1.4.2 (f4327f4, 2025-05-13)"
   xmlns:inkscape="http://www.inkscape.org/namespaces/inkscape"
   xmlns:sodipodi="http://sodipodi.sourceforge.net/DTD/sodipodi-0.dtd"
   xmlns="http://www.w3.org/2000/svg"
   xmlns:svg="http://www.w3.org/2000/svg"><defs
   id="defs6" /><sodipodi:namedview
   id="namedview6"
   pagecolor="#ffffff"
   bordercolor="#000000"
   borderopacity="0.25"
   inkscape:showpageshadow="2"
   inkscape:pageopacity="0.0"
   inkscape:pagecheckerboard="0"
   inkscape:deskcolor="#d1d1d1"
   inkscape:zoom="1.1525841"
   inkscape:cx="238.1605"
   inkscape:cy="288.4822"
   inkscape:window-width="1920"
   inkscape:window-height="1017"
   inkscape:window-x="1913"
   inkscape:window-y="1072"
   inkscape:window-maximized="1"
   inkscape:current-layer="Layer_1" />
<style
   type="text/css"
   id="style1">
	.st0{fill:#EC00FF;}
	.st1{fill:#2CFF00;}
	.st2{fill:none;stroke:#000000;stroke-width:20.2611;stroke-miterlimit:10;}
	.st3{fill:#00FFCE;}
	.st4{fill:none;stroke:#EC00FF;stroke-width:11.1514;stroke-linejoin:round;stroke-miterlimit:10;}
	.st5{fill:#F1F2F2;}
	.st6{fill:#BCBEC0;}
	.st7{fill:#FFFFFF;}
	.st8{fill:none;stroke:#000000;stroke-width:11.3855;stroke-linejoin:bevel;stroke-miterlimit:10;}
	.st9{fill:none;stroke:#000000;stroke-width:11.3855;stroke-miterlimit:10;}
	.st10{fill:none;stroke:#F1F2F2;stroke-width:11.3855;stroke-linejoin:bevel;stroke-miterlimit:10;}
	.st11{fill:none;stroke:#000000;stroke-width:12;stroke-miterlimit:10;}
	.st12{fill:none;stroke:#000000;stroke-width:12;stroke-linejoin:bevel;stroke-miterlimit:10;}
	.st13{fill:none;stroke:#000000;stroke-width:12.8315;stroke-miterlimit:10;}
	.st14{fill:none;stroke:#F1F2F2;stroke-width:12.8315;stroke-linejoin:bevel;stroke-miterlimit:10;}
	.st15{fill:none;stroke:#000000;stroke-width:17;stroke-miterlimit:10;}
	.st16{fill:none;stroke:#EC00FF;stroke-width:10;stroke-linejoin:bevel;stroke-miterlimit:10;}
	.st17{fill:none;stroke:#EC00FF;stroke-width:6;stroke-miterlimit:10;}
	.st18{fill:none;stroke:#EC00FF;stroke-width:6;stroke-linejoin:bevel;stroke-miterlimit:10;}
	.st19{fill:none;stroke:#FFFFFF;stroke-width:8;stroke-linejoin:bevel;stroke-miterlimit:10;}
	.st20{fill:none;stroke:#EC00FF;stroke-width:7.6915;stroke-miterlimit:10;}
	.st21{fill:none;stroke:#EC00FF;stroke-width:8.1417;stroke-miterlimit:10;}
	.st22{fill:none;stroke:#EC00FF;stroke-width:8;stroke-miterlimit:10;}
	.st23{fill:none;stroke:#EC00FF;stroke-width:11;stroke-miterlimit:10;}
	.st24{fill:none;stroke:#EC00FF;stroke-width:11;stroke-linejoin:bevel;stroke-miterlimit:10;}
	.st25{fill:none;stroke:#FFFFFF;stroke-width:10;stroke-linejoin:bevel;stroke-miterlimit:10;}
	.st26{fill:none;stroke:#EC00FF;stroke-width:10;stroke-miterlimit:10;}
	.st27{fill:none;stroke:#000000;stroke-width:5;stroke-linejoin:bevel;stroke-miterlimit:10;}
	.st28{fill:none;stroke:#FFFFFF;stroke-width:12.4974;stroke-linejoin:bevel;stroke-miterlimit:10;}
	.st29{fill:none;stroke:#000000;stroke-width:12.4974;stroke-linejoin:bevel;stroke-miterlimit:10;}
	.st30{fill:none;stroke:#EC00FF;stroke-width:13.3779;stroke-linejoin:bevel;stroke-miterlimit:10;}
	.st31{fill:none;stroke:#EC00FF;stroke-width:13.3779;stroke-miterlimit:10;}
	.st32{fill:none;stroke:#FFFFFF;stroke-width:12.3065;stroke-linejoin:bevel;stroke-miterlimit:10;}
	.st33{fill:none;stroke:#EC00FF;stroke-width:13;stroke-miterlimit:10;}
	.st34{fill:none;stroke:#000000;stroke-width:13.3779;stroke-linejoin:bevel;stroke-miterlimit:10;}
	.st35{fill:none;stroke:#000000;stroke-width:13.3779;stroke-miterlimit:10;}
	.st36{fill:none;stroke:#000000;stroke-width:13;stroke-miterlimit:10;}
	.st37{fill:none;stroke:#000000;stroke-width:14.5;stroke-linejoin:bevel;stroke-miterlimit:10;}
	.st38{fill:none;stroke:#EC00FF;stroke-width:17;stroke-linejoin:bevel;stroke-miterlimit:10;}
	.st39{fill:none;stroke:#EC00FF;stroke-width:17;stroke-miterlimit:10;}
	.st40{fill:none;stroke:#FFFFFF;stroke-width:17;stroke-linejoin:bevel;stroke-miterlimit:10;}
	.st41{fill:#606060;}
	.st42{fill:#00FFFF;}
	.st43{fill:none;stroke:#000000;stroke-width:20.2611;stroke-linejoin:bevel;stroke-miterlimit:10;}
	.st44{fill:none;}
	.st45{fill:none;stroke:#606060;stroke-width:12.8315;stroke-linejoin:bevel;stroke-miterlimit:10;}
	.st46{fill:none;stroke:#000000;stroke-width:19.6398;stroke-miterlimit:10;}
	.st47{fill:none;stroke:#000000;stroke-width:19.6398;stroke-linejoin:bevel;stroke-miterlimit:10;}
	.st48{fill:none;stroke:#000000;stroke-width:21.0007;stroke-miterlimit:10;}
	.st49{fill:none;stroke:#F1F2F2;stroke-width:21.0007;stroke-linejoin:bevel;stroke-miterlimit:10;}
	.st50{fill:none;stroke:#000000;stroke-width:15.7338;stroke-miterlimit:10;}
	.st51{fill:none;stroke:#000000;stroke-width:16.2021;stroke-miterlimit:10;}
	.st52{fill:none;stroke:#000000;stroke-width:13.8148;stroke-linejoin:bevel;stroke-miterlimit:10;}
	.st53{fill:none;stroke:#000000;stroke-width:13.8;stroke-miterlimit:10;}
	.st54{fill:none;stroke:#F1F2F2;stroke-width:13.8;stroke-linejoin:bevel;stroke-miterlimit:10;}
</style>
<g
   id="g6"
   transform="translate(6,-104)">
	<path
   d="m 273.4,390.1 h 33.9 c 1.5,0 2.7,-1.2 2.7,-2.7 v -61.5 c 0,-2 -2.1,-3.3 -3.9,-2.4 l -33.9,18 c -0.9,0.5 -1.4,1.4 -1.4,2.4 v 43.5 c -0.1,1.5 1.1,2.7 2.6,2.7 z"
   id="path1" />
	<path
   d="m 438,294.8 h 33.9 c 1.5,0 2.7,-1.2 2.7,-2.7 v -53.6 c 0,-2 -2.1,-3.3 -3.9,-2.4 l -33.9,18 c -0.9,0.5 -1.4,1.4 -1.4,2.4 v 35.6 c -0.1,1.5 1.1,2.7 2.6,2.7 z"
   id="path2" />
	<path
   d="m 355.7,366.7 h 33.9 c 1.5,0 2.7,-1.2 2.7,-2.7 v -81.9 c 0,-2 -2.1,-3.3 -3.9,-2.4 l -33.9,18 c -0.9,0.5 -1.4,1.4 -1.4,2.4 V 364 c -0.1,1.5 1.1,2.7 2.6,2.7 z"
   id="path3" />
	<path
   d="m 148.4,206.4 21.7,26 c 1,1.1 2.7,1.3 3.8,0.3 13.8,-11.8 26.7,-24.7 38.2,-38.6 10.4,-12.5 20,-26 28.4,-40 0.5,-0.8 0.5,-1.9 0,-2.7 l -15.3,-26.9 c -0.5,-0.8 -1.4,-1.3 -2.3,-1.3 H 2.7 c -1.5,0 -2.7,1.2 -2.7,2.7 v 33.9 c 0,1.5 1.2,2.7 2.7,2.7 h 184.7 c -1.7,2.2 -3.5,4.4 -5.3,6.6 -10.1,12.1 -21.3,23.4 -33.3,33.7 -1.1,0.8 -1.3,2.5 -0.4,3.6 z"
   id="path4" />
	<path
   d="m 88.7,224.1 c 0,38.3 -19,73.8 -50.8,95 l -13.2,8.8 c -1.2,0.8 -1.6,2.5 -0.7,3.7 l 18.8,28.2 c 0.8,1.2 2.5,1.6 3.7,0.7 l 13.2,-8.8 C 102.5,323.2 128,275.5 128,224.1 v -25.7 c 0,-1.5 -1.2,-2.7 -2.7,-2.7 H 91.4 c -1.5,0 -2.7,1.2 -2.7,2.7 z"
   id="path5" />
	<path
   d="m 479.2,151.6 -83.1,44.1 c -1.8,0.9 -3.9,-0.3 -3.9,-2.4 v -57.4 c 0,-1.5 -1.2,-2.7 -2.7,-2.7 h -33.9 c -1.5,0 -2.7,1.2 -2.7,2.7 V 217 c 0,1 -0.5,1.9 -1.4,2.4 l -37.7,20 c -1.8,0.9 -3.9,-0.3 -3.9,-2.4 V 112.6 c 0,-1.5 -1.2,-2.7 -2.7,-2.7 h -33.9 c -1.5,0 -2.7,1.2 -2.7,2.7 v 148.1 c 0,1 -0.5,1.9 -1.4,2.4 l -41.7,22.1 v 0 -17.3 c 0,-1.5 -1.2,-2.7 -2.7,-2.7 h -33.9 c -1.5,0 -2.7,1.2 -2.7,2.7 v 38.1 0 l -18.1,9.6 c -1.3,0.7 -1.8,2.3 -1.1,3.6 l 15.9,29.9 c 0.7,1.3 2.3,1.8 3.6,1.1 l 82,-43.5 39.2,-20.8 43.1,-22.9 39.2,-20.8 43.1,-22.9 26.6,-14.1 v 0 l 37.9,-20.1 v 0 l 0.2,-0.1 -17.2,-32.3 c -0.5,-1.3 -2.1,-1.8 -3.4,-1.1 z"
   id="path6" />
</g>
</svg>
