<?xml version="1.0" encoding="UTF-8" standalone="no"?>
<!-- Generator: Adobe Illustrator 28.0.0, SVG Export Plug-In . SVG Version: 6.00 Build 0)  -->

<svg
   version="1.1"
   id="Layer_1"
   x="0px"
   y="0px"
   viewBox="0 0 460 330"
   xml:space="preserve"
   sodipodi:docname="ax.svg"
   width="460"
   height="330"
   inkscape:version="1.4.2 (f4327f4, 2025-05-13)"
   xmlns:inkscape="http://www.inkscape.org/namespaces/inkscape"
   xmlns:sodipodi="http://sodipodi.sourceforge.net/DTD/sodipodi-0.dtd"
   xmlns="http://www.w3.org/2000/svg"
   xmlns:svg="http://www.w3.org/2000/svg"><defs
   id="defs4" /><sodipodi:namedview
   id="namedview4"
   pagecolor="#ffffff"
   bordercolor="#000000"
   borderopacity="0.25"
   inkscape:showpageshadow="2"
   inkscape:pageopacity="0.0"
   inkscape:pagecheckerboard="0"
   inkscape:deskcolor="#d1d1d1"
   inkscape:zoom="1.1525841"
   inkscape:cx="280.67367"
   inkscape:cy="307.56976"
   inkscape:window-width="1920"
   inkscape:window-height="1017"
   inkscape:window-x="1913"
   inkscape:window-y="1072"
   inkscape:window-maximized="1"
   inkscape:current-layer="Layer_1" />
<style
   type="text/css"
   id="style1">
	.st0{fill:#EC00FF;}
	.st1{fill:#2CFF00;}
	.st2{fill:none;stroke:#000000;stroke-width:20.2611;stroke-miterlimit:10;}
	.st3{fill:#00FFCE;}
	.st4{fill:none;stroke:#EC00FF;stroke-width:11.1514;stroke-linejoin:round;stroke-miterlimit:10;}
	.st5{fill:#F1F2F2;}
	.st6{fill:#BCBEC0;}
	.st7{fill:#FFFFFF;}
	.st8{fill:none;stroke:#000000;stroke-width:11.3855;stroke-linejoin:bevel;stroke-miterlimit:10;}
	.st9{fill:none;stroke:#000000;stroke-width:11.3855;stroke-miterlimit:10;}
	.st10{fill:none;stroke:#F1F2F2;stroke-width:11.3855;stroke-linejoin:bevel;stroke-miterlimit:10;}
	.st11{fill:none;stroke:#000000;stroke-width:12;stroke-miterlimit:10;}
	.st12{fill:none;stroke:#000000;stroke-width:12;stroke-linejoin:bevel;stroke-miterlimit:10;}
	.st13{fill:none;stroke:#000000;stroke-width:12.8315;stroke-miterlimit:10;}
	.st14{fill:none;stroke:#F1F2F2;stroke-width:12.8315;stroke-linejoin:bevel;stroke-miterlimit:10;}
	.st15{fill:none;stroke:#000000;stroke-width:17;stroke-miterlimit:10;}
	.st16{fill:none;stroke:#EC00FF;stroke-width:10;stroke-linejoin:bevel;stroke-miterlimit:10;}
	.st17{fill:none;stroke:#EC00FF;stroke-width:6;stroke-miterlimit:10;}
	.st18{fill:none;stroke:#EC00FF;stroke-width:6;stroke-linejoin:bevel;stroke-miterlimit:10;}
	.st19{fill:none;stroke:#FFFFFF;stroke-width:8;stroke-linejoin:bevel;stroke-miterlimit:10;}
	.st20{fill:none;stroke:#EC00FF;stroke-width:7.6915;stroke-miterlimit:10;}
	.st21{fill:none;stroke:#EC00FF;stroke-width:8.1417;stroke-miterlimit:10;}
	.st22{fill:none;stroke:#EC00FF;stroke-width:8;stroke-miterlimit:10;}
	.st23{fill:none;stroke:#EC00FF;stroke-width:11;stroke-miterlimit:10;}
	.st24{fill:none;stroke:#EC00FF;stroke-width:11;stroke-linejoin:bevel;stroke-miterlimit:10;}
	.st25{fill:none;stroke:#FFFFFF;stroke-width:10;stroke-linejoin:bevel;stroke-miterlimit:10;}
	.st26{fill:none;stroke:#EC00FF;stroke-width:10;stroke-miterlimit:10;}
	.st27{fill:none;stroke:#000000;stroke-width:5;stroke-linejoin:bevel;stroke-miterlimit:10;}
	.st28{fill:none;stroke:#FFFFFF;stroke-width:12.4974;stroke-linejoin:bevel;stroke-miterlimit:10;}
	.st29{fill:none;stroke:#000000;stroke-width:12.4974;stroke-linejoin:bevel;stroke-miterlimit:10;}
	.st30{fill:none;stroke:#EC00FF;stroke-width:13.3779;stroke-linejoin:bevel;stroke-miterlimit:10;}
	.st31{fill:none;stroke:#EC00FF;stroke-width:13.3779;stroke-miterlimit:10;}
	.st32{fill:none;stroke:#FFFFFF;stroke-width:12.3065;stroke-linejoin:bevel;stroke-miterlimit:10;}
	.st33{fill:none;stroke:#EC00FF;stroke-width:13;stroke-miterlimit:10;}
	.st34{fill:none;stroke:#000000;stroke-width:13.3779;stroke-linejoin:bevel;stroke-miterlimit:10;}
	.st35{fill:none;stroke:#000000;stroke-width:13.3779;stroke-miterlimit:10;}
	.st36{fill:none;stroke:#000000;stroke-width:13;stroke-miterlimit:10;}
	.st37{fill:none;stroke:#000000;stroke-width:14.5;stroke-linejoin:bevel;stroke-miterlimit:10;}
	.st38{fill:none;stroke:#EC00FF;stroke-width:17;stroke-linejoin:bevel;stroke-miterlimit:10;}
	.st39{fill:none;stroke:#EC00FF;stroke-width:17;stroke-miterlimit:10;}
	.st40{fill:none;stroke:#FFFFFF;stroke-width:17;stroke-linejoin:bevel;stroke-miterlimit:10;}
	.st41{fill:#606060;}
	.st42{fill:#00FFFF;}
	.st43{fill:none;stroke:#000000;stroke-width:20.2611;stroke-linejoin:bevel;stroke-miterlimit:10;}
	.st44{fill:none;}
	.st45{fill:none;stroke:#606060;stroke-width:12.8315;stroke-linejoin:bevel;stroke-miterlimit:10;}
	.st46{fill:none;stroke:#000000;stroke-width:19.6398;stroke-miterlimit:10;}
	.st47{fill:none;stroke:#000000;stroke-width:19.6398;stroke-linejoin:bevel;stroke-miterlimit:10;}
	.st48{fill:none;stroke:#000000;stroke-width:21.0007;stroke-miterlimit:10;}
	.st49{fill:none;stroke:#F1F2F2;stroke-width:21.0007;stroke-linejoin:bevel;stroke-miterlimit:10;}
	.st50{fill:none;stroke:#000000;stroke-width:15.7338;stroke-miterlimit:10;}
	.st51{fill:none;stroke:#000000;stroke-width:16.2021;stroke-miterlimit:10;}
	.st52{fill:none;stroke:#000000;stroke-width:13.8148;stroke-linejoin:bevel;stroke-miterlimit:10;}
	.st53{fill:none;stroke:#000000;stroke-width:13.8;stroke-miterlimit:10;}
	.st54{fill:none;stroke:#F1F2F2;stroke-width:13.8;stroke-linejoin:bevel;stroke-miterlimit:10;}
</style>
<g
   id="g4"
   transform="translate(-33.307474,-84.158721)">
	<path
   d="M 145.1,119.2 H 43.4 v 261.7 h 101.7 c 36.4,0 65.9,-12.2 90.3,-37.3 24.5,-25.2 36.4,-55.8 36.4,-93.5 0,-37.7 -11.9,-68.3 -36.4,-93.5 -24.4,-25.2 -53.9,-37.4 -90.3,-37.4 z m 49.7,181.3 c -12.2,12.7 -28.1,19 -47.7,19 h -42.6 v -139 h 42.6 c 19.6,0 35.5,6.3 47.7,19 12.2,12.7 18.2,29.5 18.2,50.6 0.1,21 -6,37.8 -18.2,50.4 z"
   id="path1" />
	<path
   d="m 429.9,250 c 0,7.8 -0.3,15.4 -0.8,23 v 0 l 23.6,28.6 c 2.6,-16.8 3.9,-34 3.9,-51.6 0,-42.3 -7.4,-82.6 -22.1,-119.8 -5.3,-13.4 -11.5,-26.3 -18.6,-38.8 l -23.1,13.4 c 6.5,11.3 12.1,23.1 16.9,35.2 13.4,34.1 20.2,71.1 20.2,110 z"
   id="path2" />
	<path
   d="m 343.5,142.1 c 0.3,0.6 0.6,1.1 0.9,1.6 0.1,0.2 0.2,0.4 0.3,0.7 0.5,0.9 0.9,1.7 1.3,2.6 1,2.1 2,4.3 3,6.4 0.1,0.2 0.2,0.4 0.2,0.6 0.5,1 0.9,2 1.3,3.1 0.1,0.1 0.1,0.3 0.2,0.5 0.3,0.8 0.7,1.6 1,2.4 0.3,0.8 0.7,1.6 1,2.4 3.8,9.6 6.9,19.5 9.3,29.7 l 32.7,39.5 c -1.8,-27.9 -7.5,-54.4 -17.3,-79 -4.1,-10.5 -9,-20.7 -14.6,-30.5 L 340,135.5 c 0.6,1.1 1.2,2.2 1.8,3.3 0.6,1.1 1.1,2.2 1.7,3.3 z"
   id="path3" />
	<path
   d="m 445.9,335 c 0,0 0,0 0,0 0,0 0,-0.1 0,-0.1 L 424.5,309 c 0,0.1 0,0.1 0,0.2 0,0 0,0 0,0 l -30,-36.2 c 0,0 0,0 0,0 0,-0.1 0,-0.1 0,-0.2 l -25.9,-31.3 v 0.2 c 0,0 0,0 0,0 L 325.9,190 c 0,0 0,0 0,0 0,-0.1 -0.1,-0.2 -0.1,-0.3 l -25.8,-31.1 -0.1,0.1 v 0 l -11.9,-14.4 -20.4,16.9 34,41 c 0.2,0.6 0.3,1.3 0.5,1.9 0.2,0.9 0.5,1.7 0.7,2.6 0,0.1 0,0.1 0,0.1 0.2,0.8 0.4,1.6 0.6,2.5 0,0.1 0,0.2 0.1,0.3 0.2,0.7 0.3,1.3 0.4,2 0.1,0.5 0.2,0.9 0.3,1.4 0.2,1 0.4,2.1 0.6,3.2 0.3,1.4 0.5,2.8 0.7,4.2 0.2,1 0.3,1.9 0.4,2.9 0,0 0,0.1 0,0.1 0.1,0.7 0.2,1.4 0.3,2.1 0.1,0.7 0.2,1.4 0.3,2.2 0,0.1 0,0.2 0,0.3 0.1,0.6 0.1,1.1 0.2,1.7 0.2,1.6 0.3,3.2 0.4,4.8 0.1,1.3 0.2,2.6 0.3,3.8 0.1,1.1 0.1,2.2 0.2,3.4 0,0.2 0,0.3 0,0.5 0,0.5 0.1,1 0.1,1.5 0,0.3 0,0.7 0,1 0,0.2 0,0.3 0,0.5 0,1.6 0,3.1 0,4.7 0,1.6 0,3.1 0,4.7 0,0.2 0,0.3 0,0.5 0,0.5 0,1.1 0,1.6 0,0.3 0,0.6 0,0.8 0,1.3 -0.1,2.6 -0.2,3.9 -0.1,1.3 -0.1,2.6 -0.3,3.9 -0.1,1.6 -0.3,3.2 -0.4,4.8 0,0.6 -0.1,1.1 -0.2,1.7 0,0.1 0,0.2 0,0.3 -0.1,0.7 -0.2,1.5 -0.3,2.2 -0.1,0.7 -0.2,1.5 -0.3,2.2 0,0.2 0,0.3 -0.1,0.4 -0.1,0.8 -0.2,1.6 -0.4,2.4 0,0.1 0,0.3 -0.1,0.4 -0.4,2.7 -0.9,5.4 -1.5,8.1 0,0.1 0,0.3 -0.1,0.4 -0.1,0.7 -0.3,1.3 -0.4,2 -0.3,1.2 -0.5,2.4 -0.8,3.6 0,0.2 -0.1,0.5 -0.2,0.7 -0.3,1.3 -0.6,2.6 -1,3.9 -0.1,0.5 -0.3,1 -0.4,1.4 -0.3,1.2 -0.7,2.5 -1.1,3.7 0,0.1 -0.1,0.2 -0.1,0.3 -0.2,0.6 -0.3,1.1 -0.5,1.7 -0.1,0.2 -0.1,0.5 -0.2,0.7 -0.4,1.1 -0.7,2.3 -1.2,3.4 -0.6,1.7 -1.2,3.3 -1.8,5 0,0.1 0,0.2 -0.1,0.2 -0.6,1.5 -1.2,2.9 -1.8,4.3 -0.1,0.3 -0.3,0.6 -0.4,1 -0.6,1.4 -1.2,2.8 -1.9,4.2 -0.7,1.6 -1.5,3.2 -2.3,4.7 -0.8,1.6 -1.6,3.1 -2.5,4.7 l 21.9,12.7 1.2,0.7 c 16,-28.6 24.1,-61.1 24.1,-97.2 0,-2.8 0,-5.6 -0.2,-8.4 l 32.8,39.6 v 0 c -2.4,19.7 -7.1,38.6 -14.1,56.3 -0.3,0.8 -0.6,1.6 -1,2.4 -0.3,0.8 -0.6,1.6 -1,2.4 -0.1,0.2 -0.1,0.3 -0.2,0.4 -0.5,1.1 -0.9,2.2 -1.4,3.2 -0.2,0.4 -0.4,0.9 -0.5,1.3 -0.9,1.9 -1.7,3.7 -2.6,5.5 -0.5,1 -1,2 -1.5,3 l -0.4,0.9 c -0.2,0.4 -0.4,0.7 -0.6,1.1 -0.5,1 -1.1,2.1 -1.6,3.1 -0.1,0.2 -0.2,0.3 -0.2,0.5 -0.4,0.8 -0.9,1.6 -1.3,2.4 -0.1,0.2 -0.2,0.5 -0.4,0.7 l 23,13.4 c 5.6,-9.8 10.4,-20 14.6,-30.5 4.9,-12.5 8.9,-25.6 11.7,-39 l 27,32.7 c -2,6.4 -4.2,12.8 -6.7,19 -4.8,12.1 -10.4,23.8 -16.8,35.2 l 23,13.4 c 7.1,-12.5 13.3,-25.4 18.6,-38.8 0.6,-1.6 1.2,-3.1 1.8,-4.7 0,0 0,0 0,0 L 466,400.9 486.4,384 Z"
   id="path4" />
</g>
</svg>
