<?xml version="1.0" encoding="UTF-8" standalone="no"?>
<!-- Generator: Adobe Illustrator 28.0.0, SVG Export Plug-In . SVG Version: 6.00 Build 0)  -->

<svg
   version="1.1"
   id="Layer_1"
   x="0px"
   y="0px"
   viewBox="0 0 480 343"
   xml:space="preserve"
   sodipodi:docname="dx.svg"
   inkscape:version="1.4.2 (f4327f4, 2025-05-13)"
   width="480"
   height="343"
   xmlns:inkscape="http://www.inkscape.org/namespaces/inkscape"
   xmlns:sodipodi="http://sodipodi.sourceforge.net/DTD/sodipodi-0.dtd"
   xmlns="http://www.w3.org/2000/svg"
   xmlns:svg="http://www.w3.org/2000/svg"><defs
   id="defs4" /><sodipodi:namedview
   id="namedview4"
   pagecolor="#ffffff"
   bordercolor="#000000"
   borderopacity="0.25"
   inkscape:showpageshadow="2"
   inkscape:pageopacity="0.0"
   inkscape:pagecheckerboard="0"
   inkscape:deskcolor="#d1d1d1"
   inkscape:zoom="0.815"
   inkscape:cx="-214.11043"
   inkscape:cy="216.56442"
   inkscape:window-width="1920"
   inkscape:window-height="1017"
   inkscape:window-x="1913"
   inkscape:window-y="1072"
   inkscape:window-maximized="1"
   inkscape:current-layer="g4" />
<style
   type="text/css"
   id="style1">
	.st0{fill:#EC00FF;}
	.st1{fill:#2CFF00;}
	.st2{fill:none;stroke:#000000;stroke-width:20.2611;stroke-miterlimit:10;}
	.st3{fill:#00FFCE;}
	.st4{fill:none;stroke:#EC00FF;stroke-width:11.1514;stroke-linejoin:round;stroke-miterlimit:10;}
	.st5{fill:#F1F2F2;}
	.st6{fill:#BCBEC0;}
	.st7{fill:#FFFFFF;}
	.st8{fill:none;stroke:#000000;stroke-width:11.3855;stroke-linejoin:bevel;stroke-miterlimit:10;}
	.st9{fill:none;stroke:#000000;stroke-width:11.3855;stroke-miterlimit:10;}
	.st10{fill:none;stroke:#F1F2F2;stroke-width:11.3855;stroke-linejoin:bevel;stroke-miterlimit:10;}
	.st11{fill:none;stroke:#000000;stroke-width:12;stroke-miterlimit:10;}
	.st12{fill:none;stroke:#000000;stroke-width:12;stroke-linejoin:bevel;stroke-miterlimit:10;}
	.st13{fill:none;stroke:#000000;stroke-width:12.8315;stroke-miterlimit:10;}
	.st14{fill:none;stroke:#F1F2F2;stroke-width:12.8315;stroke-linejoin:bevel;stroke-miterlimit:10;}
	.st15{fill:none;stroke:#000000;stroke-width:17;stroke-miterlimit:10;}
	.st16{fill:none;stroke:#EC00FF;stroke-width:10;stroke-linejoin:bevel;stroke-miterlimit:10;}
	.st17{fill:none;stroke:#EC00FF;stroke-width:6;stroke-miterlimit:10;}
	.st18{fill:none;stroke:#EC00FF;stroke-width:6;stroke-linejoin:bevel;stroke-miterlimit:10;}
	.st19{fill:none;stroke:#FFFFFF;stroke-width:8;stroke-linejoin:bevel;stroke-miterlimit:10;}
	.st20{fill:none;stroke:#EC00FF;stroke-width:7.6915;stroke-miterlimit:10;}
	.st21{fill:none;stroke:#EC00FF;stroke-width:8.1417;stroke-miterlimit:10;}
	.st22{fill:none;stroke:#EC00FF;stroke-width:8;stroke-miterlimit:10;}
	.st23{fill:none;stroke:#EC00FF;stroke-width:11;stroke-miterlimit:10;}
	.st24{fill:none;stroke:#EC00FF;stroke-width:11;stroke-linejoin:bevel;stroke-miterlimit:10;}
	.st25{fill:none;stroke:#FFFFFF;stroke-width:10;stroke-linejoin:bevel;stroke-miterlimit:10;}
	.st26{fill:none;stroke:#EC00FF;stroke-width:10;stroke-miterlimit:10;}
	.st27{fill:none;stroke:#000000;stroke-width:5;stroke-linejoin:bevel;stroke-miterlimit:10;}
	.st28{fill:none;stroke:#FFFFFF;stroke-width:12.4974;stroke-linejoin:bevel;stroke-miterlimit:10;}
	.st29{fill:none;stroke:#000000;stroke-width:12.4974;stroke-linejoin:bevel;stroke-miterlimit:10;}
	.st30{fill:none;stroke:#EC00FF;stroke-width:13.3779;stroke-linejoin:bevel;stroke-miterlimit:10;}
	.st31{fill:none;stroke:#EC00FF;stroke-width:13.3779;stroke-miterlimit:10;}
	.st32{fill:none;stroke:#FFFFFF;stroke-width:12.3065;stroke-linejoin:bevel;stroke-miterlimit:10;}
	.st33{fill:none;stroke:#EC00FF;stroke-width:13;stroke-miterlimit:10;}
	.st34{fill:none;stroke:#000000;stroke-width:13.3779;stroke-linejoin:bevel;stroke-miterlimit:10;}
	.st35{fill:none;stroke:#000000;stroke-width:13.3779;stroke-miterlimit:10;}
	.st36{fill:none;stroke:#000000;stroke-width:13;stroke-miterlimit:10;}
	.st37{fill:none;stroke:#000000;stroke-width:14.5;stroke-linejoin:bevel;stroke-miterlimit:10;}
	.st38{fill:none;stroke:#EC00FF;stroke-width:17;stroke-linejoin:bevel;stroke-miterlimit:10;}
	.st39{fill:none;stroke:#EC00FF;stroke-width:17;stroke-miterlimit:10;}
	.st40{fill:none;stroke:#FFFFFF;stroke-width:17;stroke-linejoin:bevel;stroke-miterlimit:10;}
	.st41{fill:#606060;}
	.st42{fill:#00FFFF;}
	.st43{fill:none;stroke:#000000;stroke-width:20.2611;stroke-linejoin:bevel;stroke-miterlimit:10;}
	.st44{fill:none;}
	.st45{fill:none;stroke:#606060;stroke-width:12.8315;stroke-linejoin:bevel;stroke-miterlimit:10;}
	.st46{fill:none;stroke:#000000;stroke-width:19.6398;stroke-miterlimit:10;}
	.st47{fill:none;stroke:#000000;stroke-width:19.6398;stroke-linejoin:bevel;stroke-miterlimit:10;}
	.st48{fill:none;stroke:#000000;stroke-width:21.0007;stroke-miterlimit:10;}
	.st49{fill:none;stroke:#F1F2F2;stroke-width:21.0007;stroke-linejoin:bevel;stroke-miterlimit:10;}
	.st50{fill:none;stroke:#000000;stroke-width:15.7338;stroke-miterlimit:10;}
	.st51{fill:none;stroke:#000000;stroke-width:16.2021;stroke-miterlimit:10;}
	.st52{fill:none;stroke:#000000;stroke-width:13.8148;stroke-linejoin:bevel;stroke-miterlimit:10;}
	.st53{fill:none;stroke:#000000;stroke-width:13.8;stroke-miterlimit:10;}
	.st54{fill:none;stroke:#F1F2F2;stroke-width:13.8;stroke-linejoin:bevel;stroke-miterlimit:10;}
</style>
<g
   id="g4">
	<polygon
   points="119.4,177 90.2,150.2 41,150.2 41,177 "
   id="polygon1"
   transform="translate(-8,-80)" />
	<polygon
   points="164.2,218.2 160.6,214.9 149.6,204.8 65.1,204.8 65.1,231.6 178.8,231.6 "
   id="polygon2"
   transform="translate(-8,-80)" />
	<path
   d="m 179.8,201.3 h 45 l -30.1,-27.6 h -138 v 58.7 c 0,17.3 -6.5,33.5 -18.4,45.6 -0.6,0.7 -1.3,1.3 -2,2 -6.6,6.3 -14.3,11.4 -23,15.2 l 11.2,25.2 c 11.5,-5.1 21.9,-12 30.7,-20.4 0.9,-0.9 1.8,-1.8 2.7,-2.6 11.7,-11.9 19.7,-26.5 23.7,-42.5 h 144 v -27.6 h -46 v -26 z m -95.4,26 v -26 h 67.8 v 26 z"
   id="path2" />
	<polygon
   points="260.5,306.7 260.5,336 284,336 284,328.3 "
   id="polygon3"
   transform="translate(-8,-80)" />
	
	
	<path
   id="polygon4"
   d="m 80.300781,5.699219 -15.40039,16.701171 339.499999,311.90039 15.5,-16.90039 -46.59961,-42.80078 V 84.00391 c -4.72295,-0.0771 -9.44487,-0.19963 -14.16797,-0.27539 -3.14339,-0.0278 -6.29074,-0.0783 -9.43359,0.0195 V 253 l -25,-23 V 117.68359 c -0.2664,-0.0114 -0.53216,-0.0225 -0.79883,-0.0312 -3.53522,-0.0758 -7.07349,-0.0737 -10.60937,-0.084 -4.06416,-0.009 -8.1277,-0.006 -12.19141,-0.0312 v 90.86328 l -61.79883,-56.80078 h 35.59961 V 124.80078 H 210.09961 L 179.80078,97 H 299 V 70.19922 H 179.40039 V 49.5 H 152.59961 V 70.19922 H 150.5 Z M 349.74023,66.08398 c -0.0141,9.4e-4 -0.0272,0.003 -0.041,0.006 v 0.01 c 0.0266,-0.004 0.0577,-0.01 0.0742,-0.0117 0.006,-8e-4 0.0117,-10e-4 0.0176,-0.002 -7.9e-4,-2.3e-4 -0.005,-0.002 -0.006,-0.002 h -0.002 c -0.0139,-4e-4 -0.0289,-9.3e-4 -0.043,0 z m -48.64062,48.19727 v 0.0273 c 0.0238,0.005 0.0587,0.007 0.10742,0 l 0.002,-0.002 c -0.0363,-0.009 -0.0727,-0.0182 -0.10937,-0.0254 z" />
<rect
   x="398.4538"
   y="126.62675"
   width="23.600006"
   height="137.99858"
   id="rect3-0" /><rect
   x="445.0538"
   y="153.42711"
   width="23.600006"
   height="82.565849"
   id="rect4" /></g>
</svg>
